<?xml version="1.0" encoding="iso-8859-1"?>
<!DOCTYPE svg PUBLIC "-//W3C//DTD SVG 1.1//EN" "http://www.w3.org/Graphics/SVG/1.1/DTD/svg11.dtd">
<svg 
 version="1.1" xmlns="http://www.w3.org/2000/svg" xmlns:xlink="http://www.w3.org/1999/xlink" x="0px" y="0px" width="512px"
	 height="512px" viewBox="0 0 512 512" style="enable-background:new 0 0 512 512;" xml:space="preserve"
><g id="afcae5a789ccd549f9c6e2a2f80c61e2"><g></g><path style="display: inline;" d="M386.979,59.732C359.951,22.065,313.957,2.154,255.997,0.5
		c-57.953,1.654-103.951,21.565-130.979,59.232c-42.221,50.858-47.357,123.536-15.535,180.055
		c22.84,29.202,39.918,62.3,48.87,97.419c7.183,18.425-1.397,43.314,18.414,56.373c26.414,0,52.824,0,79.23,0
		c26.413,0,52.824,0,79.237,0c19.813-13.059,11.232-37.948,18.422-56.373c8.938-35.119,26.026-68.217,48.862-97.419
		C434.341,183.268,429.205,110.591,386.979,59.732z M369.552,218.157c-25.538,33.307-43.518,69.396-53.473,107.358
		c-3.666,10.514-4.565,20.474-5.197,28.755h-54.885h-54.875c-0.63-8.281-1.528-18.243-5.192-28.761
		c-9.979-37.979-27.961-74.075-53.481-107.354c-22.976-43.004-17.957-96.251,12.814-133.315l0.885-1.067l0.808-1.125
		c23.936-33.36,66.833-41.742,99.042-42.822c32.21,1.081,75.107,9.46,99.046,42.822l0.809,1.127l0.885,1.064
		C387.507,121.905,392.526,175.152,369.552,218.157z M187.211,413.232h137.578l-19.653,78.613h-19.653V511.5h-58.963v-19.654
		h-19.654L187.211,413.232z"></path></g></svg>