<?xml version="1.0" encoding="iso-8859-1"?>
<!DOCTYPE svg PUBLIC "-//W3C//DTD SVG 1.1//EN" "http://www.w3.org/Graphics/SVG/1.1/DTD/svg11.dtd">
<svg 
 version="1.1" xmlns="http://www.w3.org/2000/svg" xmlns:xlink="http://www.w3.org/1999/xlink" x="0px" y="0px" width="512px"
	 height="512px" viewBox="0 0 512 512" style="enable-background:new 0 0 512 512;" xml:space="preserve"
><g id="afcae5a789ccd549f9c6e2a2f813c61a"><g></g><path style="display: inline; fill-rule: evenodd; clip-rule: evenodd;" d="M479.16,340.908c0,0,2.775,105.625-103.119,105.625
		c-82.468,0-76.293-68.549-76.293-68.549s7.396-45.597,40.018-62.329c35.979-18.46,97.531-8.232,97.531-8.232V94.027
		l-225.571,21.102c-0.341,0.034-0.667,0.019-1.008,0.042c-0.106,87.206-8.104,290.701-8.104,290.701S205.396,511.5,99.5,511.5
		c-82.468,0-76.29-68.549-76.29-68.549s7.388-45.593,40.014-62.332c35.979-18.461,97.534-8.237,97.534-8.237
		s0-303.448,0.273-304.707c0.622-23.088,18.498-42.773,42.045-44.972l235.108-22c25.419-2.38,48.163,16.474,50.536,41.894
		c0.242,2.585,0.212,5.121,0.03,7.634L479.16,340.908z"></path></g></svg>