<?xml version="1.0" encoding="iso-8859-1"?>
<!DOCTYPE svg PUBLIC "-//W3C//DTD SVG 1.1//EN" "http://www.w3.org/Graphics/SVG/1.1/DTD/svg11.dtd">
<svg 
 version="1.1" xmlns="http://www.w3.org/2000/svg" xmlns:xlink="http://www.w3.org/1999/xlink" x="0px" y="0px" width="512px"
	 height="512px" viewBox="0 0 512 512" enable-background="new 0 0 512 512" xml:space="preserve"
><g id="b75708d097f2188dff6617b0f00cc12a"><g></g><g fill="#007aff"><path display="inline" d="M339.245,479.563l12.567-74.047l-53.229-52.447l73.564-10.804l32.895-67.368l32.894,67.368l73.564,10.804
		l-53.229,52.447l12.567,74.047l-65.796-34.965L339.245,479.563z M315.255,417.322l-40.583-39.989
		c-9.207-9.069-12.484-22.568-8.467-34.853c4.018-12.288,14.643-21.237,27.43-23.117l55.786-8.192l8.043-16.472
		c-0.819-0.345-1.534-0.641-2.046-0.853c-7.29-3.048-84.522-36.508-90.369-39.053V235.64c0-1.443,0.445-3.782,1.368-7.023
		c0.906-3.152,1.917-6.479,3.02-9.979c1.26-4.002,2.636-8.3,4.096-12.823c5.281-9.893,9.444-20.967,12.463-33.304
		c3.011-12.338,4.521-25.315,4.521-39.021c0-18.607-1.95-34.393-5.889-47.235c-3.946-12.889-9.314-23.286-16.172-31.239
		c-6.846-7.937-14.775-13.671-23.824-17.239c-9.032-3.588-18.651-5.339-28.881-5.339c-10.417,0-20.127,1.805-29.156,5.477
		c-9.053,3.639-16.946,9.496-23.683,17.535c-6.774,8.022-12.105,18.418-16.052,31.208c-3.909,12.769-5.888,28.382-5.888,46.833
		c0,14.054,1.567,27.344,4.67,39.853c3.102,12.511,7.311,23.67,12.6,33.528c1.452,4.213,2.753,8.145,3.826,11.767
		c0.927,3.117,1.775,6.169,2.62,9.184c0.811,3.013,1.41,5.265,1.763,6.704v18.36c-5.66,2.549-125.151,53.212-128.989,54.477
		c-7.489,2.757-13.586,6.898-18.343,12.492c-4.741,5.568-8.496,11.215-11.236,17.104C4.596,343.716,2.155,350.84,0.5,358.32v63.497
		h313.994L315.255,417.322z"></path></g></g></svg>