<?xml version="1.0" encoding="iso-8859-1"?>
<!DOCTYPE svg PUBLIC "-//W3C//DTD SVG 1.1//EN" "http://www.w3.org/Graphics/SVG/1.1/DTD/svg11.dtd">
<svg 
 version="1.1" xmlns="http://www.w3.org/2000/svg" xmlns:xlink="http://www.w3.org/1999/xlink" x="0px" y="0px" width="512px"
	 height="512px" viewBox="0 0 512 512" enable-background="new 0 0 512 512" xml:space="preserve"
><g id="b75708d097f2188dff6617b0f00d51b1"><g></g><g fill="#007aff"><path d="M405.042,266.646c-58.798,0-106.459,47.665-106.459,106.459c0,58.793,47.661,106.458,106.459,106.458
		c58.797,0,106.458-47.665,106.458-106.458C511.5,314.311,463.839,266.646,405.042,266.646z M332.65,373.104
		c0-39.918,32.474-72.392,72.392-72.392c12.067,0,23.438,3.011,33.451,8.254l-97.589,97.589
		C335.661,396.542,332.65,385.172,332.65,373.104z M405.042,445.496c-12.376,0-24.028-3.132-34.225-8.625l97.991-97.991
		c5.493,10.2,8.625,21.849,8.625,34.225C477.434,413.021,444.959,445.496,405.042,445.496z M273.233,421.817H0.5V358.32
		c1.655-7.48,4.096-14.604,7.381-21.362c2.741-5.889,6.496-11.535,11.236-17.104c4.757-5.594,10.854-9.735,18.343-12.492
		c3.838-1.265,123.329-51.928,128.989-54.477v-18.36c-0.354-1.439-0.952-3.693-1.763-6.704c-0.845-3.015-1.693-6.067-2.62-9.182
		c-1.073-3.626-2.375-7.556-3.826-11.769c-5.29-9.855-9.498-21.017-12.6-33.528c-3.103-12.509-4.67-25.799-4.67-39.853
		c0-18.451,1.979-34.064,5.889-46.833c3.946-12.79,9.277-23.186,16.052-31.208c6.737-8.039,14.63-13.896,23.683-17.535
		c9.028-3.672,18.738-5.477,29.156-5.477c10.229,0,19.849,1.751,28.881,5.339c9.049,3.568,16.979,9.303,23.824,17.239
		c6.857,7.953,12.226,18.35,16.172,31.239c3.938,12.842,5.889,28.627,5.889,47.235c0,13.707-1.51,26.683-4.521,39.021
		c-3.019,12.336-7.182,23.411-12.463,33.304c-1.46,4.524-2.836,8.82-4.096,12.825c-1.103,3.498-2.113,6.824-3.02,9.977
		c-0.923,3.239-1.368,5.581-1.368,7.023v19.154c2.786,1.21,21.762,9.436,41.66,18.048c-26.012,25.517-42.192,61.031-42.192,100.263
		C264.517,390.225,267.603,406.63,273.233,421.817z"></path></g></g></svg>